<svg xmlns="http://www.w3.org/2000/svg" xmlns:xlink="http://www.w3.org/1999/xlink" version="1.1" x="0px" y="0px" viewBox="0 0 100 125" enable-background="new 0 0 100 100" xml:space="preserve"><path d="M92.734,42.826l-0.048-0.066c-0.67-0.931-1.332-1.643-2.043-2.186c0.307-0.199,0.442-0.199,0.507-0.199  c2.375,0,3.85-1.267,3.85-3.305c0-2.908-3.991-5.012-6.683-5.012c-2.229,0-3.56,1.656-3.56,4.431c0,0.385-0.012,0.693-0.163,1.171  c-0.251-0.251-0.46-0.538-0.641-0.873c-0.333-0.619-0.737-1.407-1.197-2.3c-3.297-6.411-6.479-12.261-9.146-13.421  c-3.727-1.623-16.46-2.228-23.611-2.228c-7.152,0-19.886,0.605-23.613,2.228c-2.666,1.16-5.847,7.011-9.144,13.421  c-0.46,0.893-0.866,1.682-1.198,2.3c-0.181,0.335-0.39,0.622-0.64,0.873c-0.152-0.477-0.165-0.786-0.165-1.171  c0-2.775-1.331-4.431-3.559-4.431C8.992,32.058,5,34.163,5,37.07c0,2.039,1.475,3.305,3.85,3.305c0.064,0,0.2,0,0.506,0.199  c-0.711,0.542-1.374,1.255-2.043,2.187l-0.048,0.066c-1.012,1.399-1.797,2.89-1.938,8.159c-0.041,1.525-0.374,15.006,0.468,18.465  c0.19,0.782,0.392,1.398,0.637,1.897c-0.12,2.778-0.092,4.963,0.272,6.376c0.55,2.13,1.983,3.438,3.145,3.438  c1.16,0,6.893,0,8.531,0c1.492,0,3.039-1.522,3.203-6.546c6.799,0.576,16.511,1.171,28.417,1.171  c11.906,0,21.618-0.594,28.417-1.171c0.164,5.023,1.711,6.546,3.202,6.546c1.638,0,7.371,0,8.532,0c1.16,0,2.593-1.308,3.144-3.438  c0.364-1.412,0.393-3.598,0.272-6.374c0.245-0.5,0.447-1.117,0.638-1.899c0.841-3.459,0.509-16.939,0.468-18.465  C94.532,45.715,93.747,44.225,92.734,42.826z M83.777,40.957c2.07,0,6.319,1.961,6.319,6.574c0,4.612-3.414,5.993-6.319,5.993  c-2.906,0-6.864-2.434-6.864-6.284S80.327,40.957,83.777,40.957z M24.237,26.345c0.774-1.405,1.985-2.229,2.954-2.52  c3.199-0.96,14.431-1.937,22.809-1.937h0.002c8.377,0,19.608,0.976,22.809,1.937c0.968,0.291,2.18,1.114,2.953,2.52  c0.774,1.403,5.859,10.362,6.295,12.299c0,0-8.136-1.5-32.059-1.5c-23.922,0-32.058,1.5-32.058,1.5  C18.378,36.707,23.462,27.748,24.237,26.345z M16.223,40.957c3.45,0,6.864,2.433,6.864,6.283s-3.959,6.284-6.864,6.284  c-2.906,0-6.32-1.381-6.32-5.993C9.903,42.917,14.152,40.957,16.223,40.957z M19.418,70.303c-6.828-0.509-6.937-0.727-7.899-1.453  s-1.907-3.959-1.907-7.736c0-3.776,1.892-3.143,3.813-3.014c0.937,0.062,11.622,0.617,13.947,0.763  c2.324,0.145,2.542,0.108,3.379,2.07c0.837,1.961,0.543,2.106-1.491,6.174C27.227,71.174,26.247,70.811,19.418,70.303z   M67.118,71.478C64.941,71.603,55.666,71.646,50,71.646c-5.666,0-14.942-0.044-17.118-0.169c-2.108-0.122-2.688,0.145-1.574-2.083  c1.114-2.228,2.468-3.506,3.196-3.826c1.114-0.49,9.976-0.587,15.496-0.587c5.521,0,14.383,0.097,15.496,0.587  c0.729,0.32,2.083,1.599,3.195,3.826C69.806,71.622,69.227,71.355,67.118,71.478z M70.74,67.106  c-2.033-4.067-2.328-4.213-1.491-6.174c0.838-1.962,1.056-1.926,3.38-2.07c2.325-0.146,13.01-0.7,13.947-0.763  c1.92-0.129,3.813-0.763,3.813,3.014c0,3.777-0.944,7.01-1.907,7.736c-0.962,0.727-1.071,0.944-7.899,1.453  C73.755,70.811,72.774,71.174,70.74,67.106z"/><text x="0" y="115" fill="#000000" font-size="5px" font-weight="bold" font-family="'Helvetica Neue', Helvetica, Arial-Unicode, Arial, Sans-serif">Created by Sherrinford</text><text x="0" y="120" fill="#000000" font-size="5px" font-weight="bold" font-family="'Helvetica Neue', Helvetica, Arial-Unicode, Arial, Sans-serif">from the Noun Project</text></svg>